PathFileType	4	(X/Y/Z)	Patient4_TMGait_0pt5_02_right_43.trc.trc
DataRate	CameraRate	NumFrames	NumMarkers	Units	OrigDataRate	OrigDataStartFrame	OrigNumFrames
79.545454545455	79.545454545455	4	33	mm	79.545454545455	1	       141
Frame#	Time	Sacral			L.Shoulder			Chest			R.Shoulder			Neck			R.ASIS			L.ASIS			R.Thigh.Superior			R.Thigh.Lateral			R.Thigh.Inferior			R.Patella			L.Thigh.Superior			L.Thigh.Lateral			L.Thigh.Inferior			L.Patella			L.Shank.Superior			L.Shank.Lateral			L.Shank.Inferior			R.Shank.Superior			R.Shank.Lateral			R.Shank.Inferior			R.Heel			R.Midfoot.Superior			R.Midfoot.Lateral			R.Toe			L.Heel			L.Midfoot.Lateral			L.Midfoot.Superior			L.Toe			L.Elbow			L.Wrist			R.Elbow			R.Wrist			
		X1	Y1	Z1	X2	Y2	Z2	X3	Y3	Z3	X4	Y4	Z4	X5	Y5	Z5	X6	Y6	Z6	X7	Y7	Z7	X8	Y8	Z8	X9	Y9	Z9	X10	Y10	Z10	X11	Y11	Z11	X12	Y12	Z12	X13	Y13	Z13	X14	Y14	Z14	X15	Y15	Z15	X16	Y16	Z16	X17	Y17	Z17	X18	Y18	Z18	X19	Y19	Z19	X20	Y20	Z20	X21	Y21	Z21	X22	Y22	Z22	X23	Y23	Z23	X24	Y24	Z24	X25	Y25	Z25	X26	Y26	Z26	X27	Y27	Z27	X28	Y28	Z28	X29	Y29	Z29	X30	Y30	Z30	X31	Y31	Z31	X32	Y32	Z32	X33	Y33	Z33	

1	56.130000000000	672.946337895731	1014.675928088628	451.287461775134	872.527485180367	1430.711346987078	259.064992404051	972.728088734292	1360.099302659903	421.449560099413	892.687755606787	1441.072547631116	594.340214069754	874.990888900509	1494.969587249597	408.043181485083	897.948446822373	945.279749489368	565.779337439819	887.700004048454	960.501272833814	292.565764228046	985.012820082214	782.168704462131	525.825713109518	956.266379252012	660.639142982196	599.233194462002	1040.829463316240	626.138793655813	511.734120154114	1067.303528970067	513.599082599627	529.893895771302	939.720635796245	753.184022440096	327.528797052517	856.075526583753	637.478114224309	268.446904409584	937.870059747286	561.656337048972	337.658480762153	938.141709248271	490.767304299324	348.442129182301	911.501962759124	418.781406615451	337.856827750725	824.400788722210	304.383416872731	283.927349848042	871.981558108969	193.616876179330	357.286600493374	996.134894086931	434.466981444016	539.880025909163	881.666071428930	384.885321809028	605.477445131270	870.839584015358	276.648233315916	554.893542057352	673.078973988829	203.241460257815	532.675099837105	844.609499934420	153.419517803650	569.796787739418	737.350384261688	153.381017079632	609.651189068918	916.396021048159	48.337947349054	607.401587086344	741.003614456119	37.552238173201	394.546149076692	817.077849192737	35.330329521761	315.268345642818	899.286260424870	96.593088776314	344.417993976589	1028.648616694378	44.439650781861	318.696990819547	878.320736256775	1078.481955220216	131.193266215163	1038.799689704228	870.795208264600	137.144835963689	859.281454832392	1092.847547643137	713.374727314176	948.116486462935	846.851124746762	693.303867549556	
2	56.142571428571	672.582708836572	1015.097648788987	449.501273338998	874.770560844380	1431.439830521638	259.554283479076	973.403398351749	1360.125498982965	422.530011586463	892.038433225946	1440.590130190703	595.032595638964	875.959731807658	1495.188524852789	408.775552990253	896.986636310779	945.586179502499	565.614640319919	888.779323715190	961.089647662606	292.143397820387	985.300884939567	783.823175482084	526.536734913993	956.422156031747	662.004193749830	599.630715278468	1041.721201917579	628.204742920503	512.800706290070	1069.591201812491	517.465073994467	531.165298219212	938.278175337784	752.352055845252	327.757349102405	854.022889196041	637.295988201757	267.929776532780	934.541436310542	560.761265410801	337.650462826709	934.101714168882	489.870452445914	348.480242534745	907.112990272391	418.088900724589	337.789976635553	819.487823382595	304.211132828515	283.720192532685	866.061844990550	193.265915531420	357.327573140805	1002.317647252453	436.397647105627	541.257741339241	891.446382627632	380.910693208076	607.130599530152	886.668659760153	272.595532134234	556.506836045540	694.171524911839	188.575004986678	534.660783373130	867.530796480763	148.510821020456	571.394508022815	761.088792915338	142.170497679813	611.294441418026	944.834362205689	47.687174003745	608.161002592428	734.308137502038	37.550052879529	394.534050849625	810.402563208317	35.311214431688	315.249842215571	892.657660627372	96.537121858312	344.464585356051	1022.015235300313	44.282906928449	318.711866466749	881.785295011795	1080.049574736122	129.954053400733	1051.534875581153	881.322418661830	136.742676340455	850.310584406967	1094.124862692455	714.692409379868	924.062072964587	844.691748550300	702.249534159309	
3	56.155142857143	672.250074405338	1015.521672720293	447.752789801532	877.019684598802	1432.144822321111	260.060137182058	974.095134305400	1360.135471183706	423.620413260226	891.430116395478	1440.119164368849	595.739689662769	876.951798643348	1495.395068823301	409.516779250116	896.037734455015	945.878957546958	565.481243346695	889.722793820059	961.546629118890	291.802574878932	985.490218565086	785.372379786048	527.254453999244	956.410886507134	663.288668917367	600.088066628674	1042.399717925672	630.117011378470	513.910667635887	1071.654668132783	521.218697248260	532.471957051340	936.871954551969	751.523043052487	328.009725561838	851.998722086852	637.111441073629	267.447404430155	931.247582793511	559.873334833918	337.671599933788	930.104665520221	488.982298594789	348.541628503451	902.768498926056	417.402391242147	337.745125168276	814.624345648905	304.041804917799	283.529706018816	860.192799094184	192.913676357249	357.378523252626	1008.314800288242	438.277251567518	542.658327366506	901.168212718532	376.905883623386	608.823939047232	902.458384071163	268.609743258971	558.137103784015	715.427616604104	173.989552797189	536.683640875590	890.471989429047	143.783665274940	572.976966459356	784.968528393022	131.125119700819	612.956070963046	973.272594559874	47.352164188152	608.889266144034	727.678236772392	37.548268812919	394.515105561630	803.788183200181	35.293219817862	315.232400326112	886.089082136101	96.480001924083	344.514984496533	1015.442133352079	44.121704551552	318.727848163960	885.173355414064	1081.586934838976	128.758645959341	1063.991689136402	891.819909622573	136.409598823245	841.382452041452	1095.464837416739	716.021307600340	900.389117502688	842.846235725780	710.991335669484	
4	56.167714285714	671.988979286906	1015.943990512301	446.088793476208	879.290804367912	1432.799790048781	260.606063028428	974.825887192774	1360.111471435240	424.739812587092	890.904076799728	1439.670413144610	596.476754860058	877.995680266600	1495.575445487571	410.281773602605	895.119120552409	946.143028092617	565.423318864998	890.447032680608	961.776465067869	291.623151455713	985.483135070406	786.703570213926	528.007026022063	956.084586593102	664.413964861386	600.675759688998	1042.667215882939	631.731214539616	515.106933253345	1073.273308543344	524.756226678017	533.844723835326	935.532153741198	750.694731212622	328.322383274535	850.025243065909	636.922222983159	267.037384269613	928.010747608873	558.994752742527	337.754864179109	926.177042220079	488.108213976629	348.650284992699	898.494086340745	416.725296852765	337.746113959671	809.837296059093	303.879386844107	283.373807080781	854.396299849677	192.559430155253	357.450833178055	1013.943764989897	440.063062169999	544.110557890486	910.760510839719	372.870408266169	610.592895433262	918.144001254945	264.794989470713	559.800930067949	736.976570271279	159.644275971088	538.753149217129	913.404885766543	139.461936488024	574.545923249787	809.074330815892	120.469083625672	614.640991917075	1001.629591757976	47.672020692471	609.580984057966	721.147169458647	37.550551397301	394.485208960564	797.264834835379	35.278700254946	315.217052667415	879.610999852398	96.421156936692	344.571950607644	1008.958649343033	43.951603312700	318.745728868311	888.424908484579	1083.058416667854	127.660965562532	1075.904581032383	902.243430639518	136.229150051728	832.539138216174	1096.941501645336	717.369609355446	877.464384941595	841.605174843273	719.318378978339	
